<svg width="36" height="36" viewBox="0 0 36 36" fill="none" xmlns="http://www.w3.org/2000/svg">
<path d="M11.6837 8.10525C12.4943 8.0902 13.3037 8.1733 14.0944 8.35275C14.7601 8.49809 15.3921 8.76853 15.9568 9.14971C16.4784 9.52876 16.8911 10.0383 17.1535 10.6273C17.4551 11.3516 17.6005 12.1312 17.5805 12.9155C17.6147 13.7766 17.3948 14.6288 16.9481 15.3658C16.4782 16.0619 15.8286 16.6178 15.0683 16.9746C16.1001 17.2527 16.9988 17.8899 17.6027 18.7714C18.1825 19.7055 18.474 20.7899 18.4405 21.8887C18.4597 22.7649 18.2785 23.6339 17.9109 24.4294C17.5711 25.1234 17.0735 25.7281 16.458 26.1953C15.8244 26.6574 15.1113 26.9992 14.3542 27.2039C13.5692 27.4211 12.7581 27.5302 11.9436 27.5281H3V8.10525H11.6837ZM11.1676 15.961C11.8045 15.9873 12.4315 15.7966 12.9459 15.4202C13.1923 15.2009 13.384 14.927 13.5056 14.6203C13.6272 14.3137 13.6754 13.9829 13.6464 13.6543C13.6629 13.2705 13.5865 12.8884 13.4236 12.5405C13.2855 12.2635 13.0707 12.032 12.8049 11.8735C12.5356 11.699 12.233 11.5823 11.9163 11.5307C11.5727 11.4641 11.2231 11.4339 10.8731 11.4404H7.05164V15.9784H11.1676V15.961ZM11.3904 24.2301C11.7756 24.2353 12.1599 24.1938 12.5351 24.1064C12.8779 24.0307 13.2031 23.8899 13.4929 23.6918C13.7769 23.4938 14.0063 23.2273 14.16 22.9171C14.3381 22.5216 14.42 22.0894 14.3988 21.6561C14.4374 21.2612 14.3851 20.8627 14.2459 20.4912C14.1067 20.1197 13.8843 19.785 13.5956 19.5127C12.9839 19.0622 12.2343 18.839 11.4758 18.8816H7.05164V24.2301H11.3904Z" fill="#7305FF"/>
<path d="M24.2111 24.1582C24.5291 24.453 24.9037 24.68 25.3122 24.8255C25.7207 24.971 26.1544 25.032 26.5872 25.0047C27.2732 25.022 27.9459 24.8133 28.5016 24.4107C28.9537 24.1167 29.2961 23.6817 29.4755 23.1731H32.7067C32.3624 24.6208 31.5217 25.9021 30.3307 26.7941C29.1881 27.5525 27.8378 27.9366 26.4671 27.893C25.4888 27.9059 24.518 27.722 23.6122 27.3522C22.7928 27.0105 22.0579 26.494 21.4589 25.8388C20.8621 25.1522 20.4037 24.3567 20.1087 23.4961C19.7777 22.5342 19.6157 21.5222 19.6298 20.505C19.6238 19.5049 19.7913 18.5113 20.1248 17.5684C20.573 16.2419 21.4298 15.0915 22.5723 14.2822C23.7149 13.4729 25.0844 13.0464 26.4844 13.0638C27.5181 13.0422 28.5402 13.2841 29.4545 13.7667C30.281 14.2199 30.9939 14.8546 31.5397 15.623C32.0981 16.4293 32.4983 17.3343 32.7191 18.2899C32.9612 19.316 33.0476 20.3727 32.9752 21.4245H23.351C23.2731 22.4127 23.5814 23.3927 24.2111 24.1582ZM28.4335 16.7714C28.1642 16.5021 27.8403 16.2935 27.4836 16.1599C27.1269 16.0263 26.7457 15.9706 26.3656 15.9968C25.8615 15.9775 25.3609 16.0892 24.9128 16.321C24.5575 16.5166 24.2439 16.7797 23.9896 17.0957C23.7643 17.3919 23.5964 17.7277 23.4946 18.0857C23.4029 18.3843 23.3456 18.6923 23.3238 19.0039H29.285C29.233 18.1917 28.9371 17.414 28.436 16.7727L28.4335 16.7714Z" fill="#7305FF"/>
<path d="M30.025 9.4021H22.5553V11.3116H30.025V9.4021Z" fill="#7305FF"/>
</svg>
