<svg width="1920" height="775" viewBox="0 0 1920 775" fill="none" xmlns="http://www.w3.org/2000/svg">
<g filter="url(#filter0_d_60_6)">
<path d="M119.505 110.093C33.9208 150.056 -26.8166 232.757 -41.0298 282.922C-75.4157 404.286 -70.14 559.64 -24.1725 651.157C27.4617 753.956 30.2802 633.05 69.1917 579.275C116.213 514.291 128.894 512.484 166.067 507.187L166.446 507.133C214.623 500.266 236.469 542.425 267.591 579.275C297.493 614.681 386.111 623.909 452.244 561.629C518.377 499.348 505.669 439.662 492.183 418.123C465.699 375.824 393.999 375.647 331.649 398.141C251.254 427.146 228.689 376.862 228.689 343.386C228.689 312.864 236.22 296.529 267.591 269.428C315.051 228.426 330.609 177.439 305.196 139.157C274.864 93.4669 198.469 73.22 119.505 110.093Z" stroke="url(#paint0_linear_60_6)" stroke-width="4"/>
<path d="M82.637 121.535C5.58427 146.503 -23.4305 212.239 -78.0036 294.342C-132.577 376.445 -103.481 586.527 -61.1351 662.53C-5.14232 763.027 -6.64635 644.426 32.2908 590.657C79.3435 525.682 92.0324 523.875 129.23 518.579L129.609 518.524C177.819 511.659 199.679 553.812 230.821 590.657C260.743 626.059 349.419 635.286 415.596 573.013C481.773 510.74 469.056 451.062 455.561 429.526C429.059 387.232 357.313 387.055 294.921 409.547C214.473 438.548 191.893 388.27 191.893 354.799C191.893 324.28 199.43 307.947 230.821 280.85C278.312 239.853 293.881 188.873 268.45 150.595C238.099 104.911 165.587 94.6557 82.637 121.535Z" stroke="url(#paint1_linear_60_6)" stroke-width="4"/>
<path d="M51.0729 129.016C-34.5298 169.006 -97.1321 277.982 -109.497 301.959C-159.363 418.227 -152.323 574.364 -92.6358 670.435C-31.8974 768.197 -38.1712 652.316 0.748818 598.505C47.7807 533.48 60.4641 531.671 97.6452 526.37L98.0246 526.316C146.213 519.445 168.063 561.632 199.192 598.505C229.1 633.935 317.738 643.169 383.886 580.848C450.033 518.526 437.322 458.801 423.833 437.248C397.343 394.922 325.628 394.744 263.264 417.254C182.851 446.277 160.281 395.96 160.281 362.462C160.281 331.92 167.814 315.575 199.192 288.456C246.662 247.427 262.224 196.407 236.805 158.1C206.467 112.38 130.055 92.1195 51.0729 129.016Z" stroke="url(#paint2_linear_60_6)" stroke-width="4"/>
<path d="M26.5064 136.33C-59.1312 176.306 -121.759 285.245 -134.129 309.213C-194.422 428.253 -179.899 584.709 -117.261 677.561C-52.9047 772.961 -62.7741 659.449 -23.8381 605.657C23.213 540.654 35.9015 538.846 73.0978 533.547L73.4773 533.493C121.685 526.624 143.545 568.796 174.686 605.657C204.607 641.074 293.281 650.305 359.455 588.005C425.63 525.705 412.914 466.001 399.419 444.456C372.918 402.144 301.174 401.966 238.784 424.468C158.339 453.481 135.759 403.182 135.759 369.696C135.759 339.164 143.296 322.824 174.686 295.714C222.176 254.7 237.744 203.697 212.314 165.404C181.964 119.699 105.521 99.4461 26.5064 136.33Z" stroke="url(#paint3_linear_60_6)" stroke-width="4"/>
<path d="M9.12895 141.813C-76.5736 181.773 -139.249 290.669 -151.628 314.628C-217.315 455.047 -190.758 602.236 -134.747 682.832C-69.077 777.329 -80.2192 664.727 -41.2538 610.956C5.83302 545.978 18.5312 544.171 55.7556 538.874L56.1354 538.82C104.38 531.954 126.256 574.11 157.42 610.956C187.364 646.359 276.105 655.587 342.33 593.311C408.555 531.036 395.829 471.355 382.324 449.818C355.803 407.522 284.005 407.345 221.567 429.838C141.061 458.84 118.465 408.56 118.465 375.087C118.465 344.567 126.006 328.234 157.42 301.135C204.946 260.137 220.526 209.154 195.077 170.875C164.704 125.189 88.2032 104.943 9.12895 141.813Z" stroke="url(#paint4_linear_60_6)" stroke-width="4"/>
<path d="M-1.65644 146.532C-85.3109 181.641 -146.454 286.897 -162.33 319.326C-219.616 447.735 -209.644 601.457 -145.458 687.485C-76.6601 779.695 -90.9583 669.382 -52.0131 615.618C-4.95069 550.648 7.74088 548.841 44.9461 543.545L45.3257 543.491C93.5449 536.626 115.41 578.776 146.558 615.618C176.486 651.016 265.182 660.243 331.372 597.975C397.562 535.707 384.843 476.034 371.346 454.499C344.838 412.209 273.077 412.032 210.672 434.522C130.207 463.52 107.623 413.247 107.623 379.778C107.623 349.262 115.161 332.93 146.558 305.835C194.059 264.841 209.632 213.865 184.196 175.591C153.838 129.91 78.7581 112.783 -1.65644 146.532Z" stroke="url(#paint5_linear_60_6)" stroke-width="4"/>
</g>
<path d="M119.505 110.093C33.9208 150.056 -26.8166 232.757 -41.0298 282.922C-75.4157 404.286 -70.14 559.64 -24.1725 651.157C27.4617 753.956 30.2802 633.05 69.1917 579.275C116.213 514.291 128.894 512.484 166.067 507.187L166.446 507.133C214.623 500.266 236.469 542.425 267.591 579.275C297.493 614.681 386.111 623.909 452.244 561.629C518.377 499.348 505.669 439.662 492.183 418.123C465.699 375.824 393.999 375.647 331.649 398.141C251.254 427.146 228.689 376.862 228.689 343.386C228.689 312.864 236.22 296.529 267.591 269.428C315.051 228.426 330.609 177.439 305.196 139.157C274.864 93.4669 198.469 73.22 119.505 110.093Z" stroke="url(#paint6_linear_60_6)" stroke-width="4"/>
<path d="M82.637 121.535C5.58427 146.503 -23.4305 212.239 -78.0036 294.342C-132.577 376.445 -103.481 586.527 -61.1351 662.53C-5.14232 763.027 -6.64635 644.426 32.2908 590.657C79.3435 525.682 92.0324 523.875 129.23 518.579L129.609 518.524C177.819 511.659 199.679 553.812 230.821 590.657C260.743 626.059 349.419 635.286 415.596 573.013C481.773 510.74 469.056 451.062 455.561 429.526C429.059 387.232 357.313 387.055 294.921 409.547C214.473 438.548 191.893 388.27 191.893 354.799C191.893 324.28 199.43 307.947 230.821 280.85C278.312 239.853 293.881 188.873 268.45 150.595C238.099 104.911 165.587 94.6557 82.637 121.535Z" stroke="url(#paint7_linear_60_6)" stroke-width="4"/>
<path d="M51.0729 129.016C-34.5298 169.006 -97.1321 277.982 -109.497 301.959C-159.363 418.227 -152.323 574.364 -92.6358 670.435C-31.8974 768.197 -38.1712 652.316 0.748818 598.505C47.7807 533.48 60.4641 531.671 97.6452 526.37L98.0246 526.316C146.213 519.445 168.063 561.632 199.192 598.505C229.1 633.935 317.738 643.169 383.886 580.848C450.033 518.526 437.322 458.801 423.833 437.248C397.343 394.922 325.628 394.744 263.264 417.254C182.851 446.277 160.281 395.96 160.281 362.462C160.281 331.92 167.814 315.575 199.192 288.456C246.662 247.427 262.224 196.407 236.805 158.1C206.467 112.38 130.055 92.1195 51.0729 129.016Z" stroke="url(#paint8_linear_60_6)" stroke-width="4"/>
<path d="M26.5064 136.33C-59.1312 176.306 -121.759 285.245 -134.129 309.213C-194.422 428.253 -179.899 584.709 -117.261 677.561C-52.9047 772.961 -62.7741 659.449 -23.8381 605.657C23.213 540.654 35.9015 538.846 73.0978 533.547L73.4773 533.493C121.685 526.624 143.545 568.796 174.686 605.657C204.607 641.074 293.281 650.305 359.455 588.005C425.63 525.705 412.914 466.001 399.419 444.456C372.918 402.144 301.174 401.966 238.784 424.468C158.339 453.481 135.759 403.182 135.759 369.696C135.759 339.164 143.296 322.824 174.686 295.714C222.176 254.7 237.744 203.697 212.314 165.404C181.964 119.699 105.521 99.4461 26.5064 136.33Z" stroke="url(#paint9_linear_60_6)" stroke-width="4"/>
<path d="M9.12895 141.813C-76.5736 181.773 -139.249 290.669 -151.628 314.628C-217.315 455.047 -190.758 602.236 -134.747 682.832C-69.077 777.329 -80.2192 664.727 -41.2538 610.956C5.83302 545.978 18.5312 544.171 55.7556 538.874L56.1354 538.82C104.38 531.954 126.256 574.11 157.42 610.956C187.364 646.359 276.105 655.587 342.33 593.311C408.555 531.036 395.829 471.355 382.324 449.818C355.803 407.522 284.005 407.345 221.567 429.838C141.061 458.84 118.465 408.56 118.465 375.087C118.465 344.567 126.006 328.234 157.42 301.135C204.946 260.137 220.526 209.154 195.077 170.875C164.704 125.189 88.2032 104.943 9.12895 141.813Z" stroke="url(#paint10_linear_60_6)" stroke-width="4"/>
<path d="M-1.65644 146.532C-85.3109 181.641 -146.454 286.897 -162.33 319.326C-219.616 447.735 -209.644 601.457 -145.458 687.485C-76.6601 779.695 -90.9583 669.382 -52.0131 615.618C-4.95069 550.648 7.74088 548.841 44.9461 543.545L45.3257 543.491C93.5449 536.626 115.41 578.776 146.558 615.618C176.486 651.016 265.182 660.243 331.372 597.975C397.562 535.707 384.843 476.034 371.346 454.499C344.838 412.209 273.077 412.032 210.672 434.522C130.207 463.52 107.623 413.247 107.623 379.778C107.623 349.262 115.161 332.93 146.558 305.835C194.059 264.841 209.632 213.865 184.196 175.591C153.838 129.91 78.7581 112.783 -1.65644 146.532Z" stroke="url(#paint11_linear_60_6)" stroke-width="4"/>
<path d="M1838.91 430.106L1838.94 430.147L1838.97 430.186C1873.04 477.13 1899.32 515.289 1916.2 544.152C1924.64 558.586 1930.72 570.661 1934.24 580.326C1937.79 590.049 1938.67 597.112 1937.05 601.662C1936.26 603.888 1934.86 605.53 1932.81 606.629C1930.74 607.742 1927.93 608.326 1924.31 608.294C1917.04 608.231 1906.77 605.7 1893.24 600.541C1866.2 590.237 1826.53 569.6 1772.57 538.062C1770.13 536.419 1767.4 534.34 1764.37 532.039C1764.05 531.796 1763.73 531.551 1763.4 531.303C1759.99 528.71 1756.25 525.891 1752.23 523.186C1744.2 517.783 1735.01 512.788 1725.08 510.942C1715.11 509.089 1704.43 510.419 1693.51 517.588C1682.61 524.735 1671.52 537.647 1660.59 558.839C1655.23 569.246 1648.43 576.268 1640.63 580.526C1632.82 584.785 1623.94 586.319 1614.33 585.627C1595.07 584.239 1573.02 573.921 1551.37 558.944C1529.74 543.982 1508.61 524.447 1491.21 504.778C1473.8 485.098 1460.18 465.345 1453.51 449.965C1441.04 421.22 1430.58 381.777 1433.49 345.514C1436.4 309.306 1452.62 276.357 1493.46 260.221C1513.85 252.165 1537.14 253.164 1560.88 255.876C1566.3 256.495 1571.74 257.205 1577.18 257.913C1595.46 260.293 1613.62 262.659 1630.33 261.542C1652.1 260.086 1671.57 252.714 1685.88 231.774C1700.13 210.915 1709.16 176.716 1710.48 121.836C1711.14 94.646 1720.07 76.5147 1734.52 65.4145C1749.01 54.2854 1769.22 50.0881 1792.7 51.1624C1839.67 53.3115 1899.19 76.5327 1950.34 106.284C1975.91 121.151 1999.35 137.627 2018.05 153.875C2036.77 170.14 2050.67 186.113 2057.26 199.958C2060.55 206.875 2061.98 213.183 2061.34 218.693C2060.71 224.165 2058.03 228.945 2052.91 232.84C2047.77 236.756 2040.12 239.791 2029.58 241.652C2019.04 243.512 2005.67 244.189 1989.12 243.437C1922.64 240.419 1879.87 250.486 1853.18 267.437C1826.43 284.425 1815.93 308.253 1813.84 332.41C1811.76 356.519 1818.05 380.955 1824.82 399.317C1828.21 408.507 1831.73 416.197 1834.4 421.591C1835.74 424.289 1836.86 426.413 1837.66 427.865C1838.05 428.591 1838.36 429.149 1838.58 429.527C1838.64 429.625 1838.68 429.711 1838.73 429.785C1838.77 429.852 1838.8 429.91 1838.83 429.956L1838.89 430.067L1838.91 430.095L1838.91 430.103C1838.91 430.105 1838.91 430.106 1839.77 429.598L1838.91 430.106Z" stroke="url(#paint12_linear_60_6)" stroke-width="2"/>
<path d="M1851.57 446.07L1851.61 446.132L1851.65 446.19C1885.73 493.133 1911.99 531.275 1928.86 560.115C1937.3 574.539 1943.35 586.584 1946.86 596.208C1950.41 605.92 1951.23 612.834 1949.67 617.205C1948.92 619.316 1947.61 620.86 1945.67 621.899C1943.69 622.958 1940.98 623.536 1937.4 623.505C1930.23 623.442 1920.03 620.939 1906.51 615.785C1879.52 605.497 1839.88 584.881 1785.93 553.349C1783.51 551.716 1780.79 549.649 1777.76 547.35C1777.45 547.108 1777.12 546.863 1776.8 546.615C1773.39 544.022 1769.63 541.196 1765.6 538.482C1757.55 533.064 1748.29 528.026 1738.26 526.161C1728.17 524.286 1717.37 525.636 1706.32 532.88C1695.33 540.093 1684.19 553.086 1673.24 574.321C1667.91 584.654 1661.18 591.595 1653.48 595.798C1645.78 600.002 1636.99 601.525 1627.46 600.838C1608.33 599.461 1586.37 589.201 1564.75 574.243C1543.16 559.308 1522.06 539.801 1504.68 520.157C1487.29 500.496 1473.7 480.788 1467.06 465.477C1454.61 436.776 1444.18 397.418 1447.08 361.265C1449.98 325.193 1466.12 292.445 1506.73 276.397C1527 268.39 1550.18 269.372 1573.91 272.083C1579.31 272.7 1584.75 273.408 1590.18 274.115C1608.46 276.497 1626.7 278.872 1643.46 277.752C1665.34 276.289 1684.97 268.867 1699.38 247.767C1713.71 226.787 1722.75 192.47 1724.08 137.559C1724.73 110.478 1733.62 92.507 1747.92 81.5216C1762.27 70.493 1782.35 66.301 1805.77 67.3725C1852.63 69.5162 1912.06 92.6928 1963.18 122.427C1988.73 137.281 2012.14 153.74 2030.81 169.963C2049.52 186.213 2063.36 202.131 2069.9 215.883C2073.17 222.751 2074.56 228.962 2073.94 234.346C2073.32 239.674 2070.72 244.334 2065.7 248.152C2060.64 252.003 2053.09 255.017 2042.58 256.871C2032.09 258.722 2018.76 259.399 2002.23 258.648C1935.7 255.628 1892.82 265.695 1866 282.726C1839.1 299.81 1828.54 323.791 1826.44 348.077C1824.35 372.292 1830.66 396.807 1837.44 415.201C1840.84 424.411 1844.37 432.117 1847.05 437.524C1848.39 440.228 1849.51 442.358 1850.31 443.815C1850.71 444.544 1851.02 445.104 1851.24 445.484C1851.34 445.674 1851.43 445.819 1851.49 445.917L1851.55 446.03L1851.57 446.059L1851.57 446.067C1851.57 446.069 1851.57 446.07 1852.87 445.309L1851.57 446.07Z" stroke="url(#paint13_linear_60_6)" stroke-width="3"/>
<path d="M1863.34 462.765L1861.62 463.781L1861.67 463.863L1861.72 463.94C1895.8 510.882 1922.05 549.006 1938.9 577.824C1947.33 592.238 1953.37 604.253 1956.87 613.835C1960.41 623.536 1961.17 630.301 1959.68 634.494C1958.97 636.491 1957.73 637.936 1955.91 638.914C1954.03 639.921 1951.41 640.492 1947.88 640.461C1940.8 640.399 1930.66 637.923 1917.16 632.774C1890.21 622.502 1850.61 601.908 1796.67 570.382C1794.26 568.759 1791.56 566.703 1788.54 564.406C1788.22 564.164 1787.9 563.92 1787.57 563.673C1784.16 561.08 1780.4 558.246 1776.35 555.524C1768.28 550.091 1758.96 545.009 1748.83 543.126C1738.62 541.229 1727.68 542.599 1716.52 549.918C1705.43 557.195 1694.24 570.271 1683.27 591.548C1677.98 601.807 1671.31 608.668 1663.71 612.815C1656.11 616.965 1647.42 618.477 1637.97 617.796C1618.97 616.428 1597.1 606.227 1575.51 591.288C1553.96 576.38 1532.89 556.902 1515.53 537.282C1498.15 517.64 1484.61 497.978 1477.99 482.734C1465.56 454.078 1455.16 414.805 1458.05 378.761C1460.94 342.826 1477 310.278 1517.39 294.318C1537.53 286.36 1560.6 287.326 1584.33 290.036C1589.71 290.651 1595.13 291.357 1600.55 292.063C1618.84 294.447 1637.15 296.831 1653.96 295.707C1675.95 294.236 1695.74 286.766 1710.27 265.505C1724.68 244.405 1733.72 209.97 1735.05 155.027C1735.7 128.055 1744.54 110.245 1758.69 99.3743C1772.92 88.4462 1792.86 84.2594 1816.22 85.3282C1862.96 87.4666 1922.31 110.598 1973.41 140.315C1998.93 155.157 2022.31 171.597 2040.96 187.797C2059.64 204.031 2073.42 219.895 2079.92 233.554C2083.17 240.373 2084.52 246.486 2083.91 251.745C2083.32 256.928 2080.79 261.469 2075.87 265.21C2070.9 268.995 2063.43 271.988 2052.97 273.834C2042.53 275.677 2029.23 276.355 2012.73 275.605C1946.15 272.583 1903.15 282.651 1876.21 299.76C1849.15 316.941 1838.52 341.076 1836.41 365.491C1834.31 389.81 1840.65 414.406 1847.45 432.83C1850.85 442.06 1854.39 449.783 1857.07 455.202C1858.41 457.912 1859.55 460.049 1860.34 461.511C1860.47 461.736 1860.58 461.944 1860.69 462.137C1860.93 462.571 1861.13 462.923 1861.28 463.188C1861.38 463.379 1861.47 463.525 1861.53 463.624C1861.55 463.674 1861.58 463.712 1861.59 463.738L1861.61 463.768L1861.61 463.777C1861.62 463.779 1861.62 463.781 1863.34 462.765Z" stroke="url(#paint14_linear_60_6)" stroke-width="4"/>
<path d="M1876.43 481.967L1874.28 483.236L1874.34 483.339L1874.41 483.435C1908.49 530.377 1934.72 568.484 1951.56 597.278C1959.99 611.682 1966.01 623.667 1969.49 633.208C1973.02 642.897 1973.73 649.514 1972.3 653.528C1971.63 655.411 1970.48 656.757 1968.76 657.675C1966.98 658.629 1964.45 659.193 1960.98 659.163C1953.99 659.102 1943.92 656.652 1930.43 651.508C1903.53 641.254 1863.96 620.68 1810.02 589.16C1807.64 587.547 1804.95 585.505 1801.93 583.209C1801.62 582.968 1801.29 582.724 1800.97 582.477C1797.56 579.884 1793.78 577.041 1789.72 574.311C1781.63 568.864 1772.24 563.737 1762.01 561.836C1751.69 559.917 1740.61 561.307 1729.34 568.702C1718.15 576.044 1706.91 589.201 1695.92 610.52C1690.66 620.706 1684.07 627.486 1676.57 631.578C1669.06 635.673 1660.48 637.175 1651.1 636.499C1632.24 635.14 1610.45 624.999 1588.88 610.079C1567.37 595.198 1546.33 575.748 1529 556.152C1511.64 536.53 1498.13 516.912 1491.54 501.737C1479.13 473.126 1468.76 433.938 1471.65 398.003C1474.52 362.204 1490.49 329.857 1530.67 313.985C1550.68 306.077 1573.65 307.025 1597.36 309.735C1602.72 310.347 1608.13 311.052 1613.54 311.757C1631.85 314.142 1650.22 316.535 1667.09 315.407C1689.18 313.93 1709.14 306.411 1723.77 284.989C1738.27 263.769 1747.32 229.215 1748.64 174.241C1749.29 147.378 1758.09 129.728 1772.09 118.973C1786.19 108.145 1805.99 103.964 1829.29 105.03C1875.91 107.163 1935.18 130.25 1986.25 159.949C2011.74 174.778 2035.1 191.201 2053.72 207.376C2072.39 223.595 2086.11 239.404 2092.56 252.971C2095.78 259.74 2097.1 265.757 2096.51 270.889C2095.93 275.928 2093.48 280.35 2088.66 284.014C2083.78 287.733 2076.39 290.706 2065.98 292.544C2055.58 294.378 2042.33 295.056 2025.84 294.308C1959.22 291.283 1916.1 301.352 1889.03 318.54C1861.82 335.817 1851.13 360.105 1849.01 384.649C1846.9 409.074 1853.26 433.75 1860.07 452.205C1863.48 461.455 1867.02 469.194 1869.72 474.626C1871.06 477.343 1872.2 479.485 1873 480.952C1873.4 481.686 1873.71 482.252 1873.93 482.637C1874.04 482.829 1874.13 482.976 1874.19 483.077C1874.21 483.127 1874.24 483.165 1874.25 483.192L1874.27 483.223L1874.28 483.232C1874.28 483.234 1874.28 483.236 1876.43 481.967Z" stroke="url(#paint15_linear_60_6)" stroke-width="5"/>
<path d="M1888.65 502.041L1886.07 503.565L1886.14 503.688L1886.22 503.804C1920.3 550.744 1946.53 588.834 1963.35 617.605C1971.77 631.999 1977.77 643.954 1981.24 653.454C1984.77 663.132 1985.41 669.6 1984.05 673.435C1983.42 675.204 1982.35 676.451 1980.75 677.309C1979.07 678.21 1976.63 678.767 1973.2 678.737C1966.3 678.677 1956.31 676.254 1942.83 671.116C1915.97 660.878 1876.43 640.326 1822.51 608.811C1820.14 607.208 1817.47 605.178 1814.45 602.884C1814.14 602.643 1813.82 602.4 1813.49 602.154C1810.08 599.56 1806.29 596.71 1802.22 593.97C1794.1 588.509 1784.65 583.339 1774.32 581.419C1763.88 579.478 1752.67 580.888 1741.29 588.359C1730 595.765 1718.71 609.004 1707.69 630.366C1702.48 640.478 1695.94 647.177 1688.55 651.214C1681.14 655.254 1672.66 656.745 1663.35 656.075C1644.62 654.726 1622.93 644.644 1601.39 629.742C1579.91 614.888 1558.9 595.466 1541.59 575.896C1524.25 556.292 1510.77 536.72 1504.22 521.613C1491.83 493.047 1481.48 453.943 1484.36 418.118C1487.23 382.455 1503.12 350.309 1543.07 334.525C1562.96 326.666 1585.81 327.597 1609.53 330.306C1614.87 330.916 1620.26 331.619 1625.66 332.323C1643.98 334.71 1662.42 337.113 1679.34 335.981C1701.54 334.496 1721.66 326.928 1736.41 305.345C1750.98 284.005 1760.03 249.333 1761.36 194.328C1762.01 167.574 1770.76 150.085 1784.62 139.444C1798.58 128.717 1818.25 124.54 1841.49 125.604C1887.99 127.731 1947.18 150.774 1998.22 180.456C2023.69 195.272 2047.02 211.677 2065.61 227.829C2084.26 244.031 2097.92 259.787 2104.33 273.26C2107.53 279.98 2108.81 285.9 2108.23 290.907C2107.67 295.801 2105.3 300.103 2100.58 303.691C2095.78 307.344 2088.48 310.296 2078.11 312.126C2067.76 313.952 2054.55 314.63 2038.09 313.883C1971.42 310.856 1928.17 320.925 1900.98 338.192C1873.62 355.566 1862.86 380.008 1860.73 404.681C1858.61 429.211 1865 453.967 1871.82 472.452C1875.24 481.723 1878.79 489.478 1881.49 494.923C1882.84 497.646 1883.97 499.794 1884.78 501.266C1885.18 502.003 1885.5 502.571 1885.72 502.958C1885.83 503.152 1885.91 503.3 1885.97 503.402C1886 503.453 1886.02 503.492 1886.04 503.519L1886.06 503.551L1886.06 503.56C1886.07 503.563 1886.07 503.565 1888.65 502.041Z" stroke="url(#paint16_linear_60_6)" stroke-width="6"/>
<g filter="url(#filter1_d_60_6)">
<path d="M1838.91 430.106L1838.94 430.147L1838.97 430.186C1873.04 477.13 1899.32 515.289 1916.2 544.152C1924.64 558.586 1930.72 570.661 1934.24 580.326C1937.79 590.049 1938.67 597.112 1937.05 601.662C1936.26 603.888 1934.86 605.53 1932.81 606.629C1930.74 607.742 1927.93 608.326 1924.31 608.294C1917.04 608.231 1906.77 605.7 1893.24 600.541C1866.2 590.237 1826.53 569.6 1772.57 538.062C1770.13 536.419 1767.4 534.34 1764.37 532.039C1764.05 531.796 1763.73 531.551 1763.4 531.303C1759.99 528.71 1756.25 525.891 1752.23 523.186C1744.2 517.783 1735.01 512.788 1725.08 510.942C1715.11 509.089 1704.43 510.419 1693.51 517.588C1682.61 524.735 1671.52 537.647 1660.59 558.839C1655.23 569.246 1648.43 576.268 1640.63 580.526C1632.82 584.785 1623.94 586.319 1614.33 585.627C1595.07 584.239 1573.02 573.921 1551.37 558.944C1529.74 543.982 1508.61 524.447 1491.21 504.778C1473.8 485.098 1460.18 465.345 1453.51 449.965C1441.04 421.22 1430.58 381.777 1433.49 345.514C1436.4 309.306 1452.62 276.357 1493.46 260.221C1513.85 252.165 1537.14 253.164 1560.88 255.876C1566.3 256.495 1571.74 257.205 1577.18 257.913C1595.46 260.293 1613.62 262.659 1630.33 261.542C1652.1 260.086 1671.57 252.714 1685.88 231.774C1700.13 210.915 1709.16 176.716 1710.48 121.836C1711.14 94.646 1720.07 76.5147 1734.52 65.4145C1749.01 54.2854 1769.22 50.0881 1792.7 51.1624C1839.67 53.3115 1899.19 76.5327 1950.34 106.284C1975.91 121.151 1999.35 137.627 2018.05 153.875C2036.77 170.14 2050.67 186.113 2057.26 199.958C2060.55 206.875 2061.98 213.183 2061.34 218.693C2060.71 224.165 2058.03 228.945 2052.91 232.84C2047.77 236.756 2040.12 239.791 2029.58 241.652C2019.04 243.512 2005.67 244.189 1989.12 243.437C1922.64 240.419 1879.87 250.486 1853.18 267.437C1826.43 284.425 1815.93 308.253 1813.84 332.41C1811.76 356.519 1818.05 380.955 1824.82 399.317C1828.21 408.507 1831.73 416.197 1834.4 421.591C1835.74 424.289 1836.86 426.413 1837.66 427.865C1838.05 428.591 1838.36 429.149 1838.58 429.527C1838.64 429.625 1838.68 429.711 1838.73 429.785C1838.77 429.852 1838.8 429.91 1838.83 429.956L1838.89 430.067L1838.91 430.095L1838.91 430.103C1838.91 430.105 1838.91 430.106 1839.77 429.598L1838.91 430.106Z" stroke="url(#paint17_linear_60_6)" stroke-width="2"/>
</g>
<g filter="url(#filter2_d_60_6)">
<path d="M1851.57 446.07L1851.61 446.132L1851.65 446.19C1885.73 493.133 1911.99 531.275 1928.86 560.115C1937.3 574.539 1943.35 586.584 1946.86 596.208C1950.41 605.92 1951.23 612.834 1949.67 617.205C1948.92 619.316 1947.61 620.86 1945.67 621.899C1943.69 622.958 1940.98 623.536 1937.4 623.505C1930.23 623.442 1920.03 620.939 1906.51 615.785C1879.52 605.497 1839.88 584.881 1785.93 553.349C1783.51 551.716 1780.79 549.649 1777.76 547.35C1777.45 547.108 1777.12 546.863 1776.8 546.615C1773.39 544.022 1769.63 541.196 1765.6 538.482C1757.55 533.064 1748.29 528.026 1738.26 526.161C1728.17 524.286 1717.37 525.636 1706.32 532.88C1695.33 540.093 1684.19 553.086 1673.24 574.321C1667.91 584.654 1661.18 591.595 1653.48 595.798C1645.78 600.002 1636.99 601.525 1627.46 600.838C1608.33 599.461 1586.37 589.201 1564.75 574.243C1543.16 559.308 1522.06 539.801 1504.68 520.157C1487.29 500.496 1473.7 480.788 1467.06 465.477C1454.61 436.776 1444.18 397.418 1447.08 361.265C1449.98 325.193 1466.12 292.445 1506.73 276.397C1527 268.39 1550.18 269.372 1573.91 272.083C1579.31 272.7 1584.75 273.408 1590.18 274.115C1608.46 276.497 1626.7 278.872 1643.46 277.752C1665.34 276.289 1684.97 268.867 1699.38 247.767C1713.71 226.787 1722.75 192.47 1724.08 137.559C1724.73 110.478 1733.62 92.507 1747.92 81.5216C1762.27 70.493 1782.35 66.301 1805.77 67.3725C1852.63 69.5162 1912.06 92.6928 1963.18 122.427C1988.73 137.281 2012.14 153.74 2030.81 169.963C2049.52 186.213 2063.36 202.131 2069.9 215.883C2073.17 222.751 2074.56 228.962 2073.94 234.346C2073.32 239.674 2070.72 244.334 2065.7 248.152C2060.64 252.003 2053.09 255.017 2042.58 256.871C2032.09 258.722 2018.76 259.399 2002.23 258.648C1935.7 255.628 1892.82 265.695 1866 282.726C1839.1 299.81 1828.54 323.791 1826.44 348.077C1824.35 372.292 1830.66 396.807 1837.44 415.201C1840.84 424.411 1844.37 432.117 1847.05 437.524C1848.39 440.228 1849.51 442.358 1850.31 443.815C1850.71 444.544 1851.02 445.104 1851.24 445.484C1851.34 445.674 1851.43 445.819 1851.49 445.917L1851.55 446.03L1851.57 446.059L1851.57 446.067C1851.57 446.069 1851.57 446.07 1852.87 445.309L1851.57 446.07Z" stroke="url(#paint18_linear_60_6)" stroke-width="3"/>
</g>
<g filter="url(#filter3_d_60_6)">
<path d="M1863.34 462.765L1861.62 463.781L1861.67 463.863L1861.72 463.94C1895.8 510.882 1922.05 549.006 1938.9 577.824C1947.33 592.238 1953.37 604.253 1956.87 613.835C1960.41 623.536 1961.17 630.301 1959.68 634.494C1958.97 636.491 1957.73 637.936 1955.91 638.914C1954.03 639.921 1951.41 640.492 1947.88 640.461C1940.8 640.399 1930.66 637.923 1917.16 632.774C1890.21 622.502 1850.61 601.908 1796.67 570.382C1794.26 568.759 1791.56 566.703 1788.54 564.406C1788.22 564.164 1787.9 563.92 1787.57 563.673C1784.16 561.08 1780.4 558.246 1776.35 555.524C1768.28 550.091 1758.96 545.009 1748.83 543.126C1738.62 541.229 1727.68 542.599 1716.52 549.918C1705.43 557.195 1694.24 570.271 1683.27 591.548C1677.98 601.807 1671.31 608.668 1663.71 612.815C1656.11 616.965 1647.42 618.477 1637.97 617.796C1618.97 616.428 1597.1 606.227 1575.51 591.288C1553.96 576.38 1532.89 556.902 1515.53 537.282C1498.15 517.64 1484.61 497.978 1477.99 482.734C1465.56 454.078 1455.16 414.805 1458.05 378.761C1460.94 342.826 1477 310.278 1517.39 294.318C1537.53 286.36 1560.6 287.326 1584.33 290.036C1589.71 290.651 1595.13 291.357 1600.55 292.063C1618.84 294.447 1637.15 296.831 1653.96 295.707C1675.95 294.236 1695.74 286.766 1710.27 265.505C1724.68 244.405 1733.72 209.97 1735.05 155.027C1735.7 128.055 1744.54 110.245 1758.69 99.3743C1772.92 88.4462 1792.86 84.2594 1816.22 85.3282C1862.96 87.4666 1922.31 110.598 1973.41 140.315C1998.93 155.157 2022.31 171.597 2040.96 187.797C2059.64 204.031 2073.42 219.895 2079.92 233.554C2083.17 240.373 2084.52 246.486 2083.91 251.745C2083.32 256.928 2080.79 261.469 2075.87 265.21C2070.9 268.995 2063.43 271.988 2052.97 273.834C2042.53 275.677 2029.23 276.355 2012.73 275.605C1946.15 272.583 1903.15 282.651 1876.21 299.76C1849.15 316.941 1838.52 341.076 1836.41 365.491C1834.31 389.81 1840.65 414.406 1847.45 432.83C1850.85 442.06 1854.39 449.783 1857.07 455.202C1858.41 457.912 1859.55 460.049 1860.34 461.511C1860.47 461.736 1860.58 461.944 1860.69 462.137C1860.93 462.571 1861.13 462.923 1861.28 463.188C1861.38 463.379 1861.47 463.525 1861.53 463.624C1861.55 463.674 1861.58 463.712 1861.59 463.738L1861.61 463.768L1861.61 463.777C1861.62 463.779 1861.62 463.781 1863.34 462.765Z" stroke="url(#paint19_linear_60_6)" stroke-width="4"/>
</g>
<g filter="url(#filter4_d_60_6)">
<path d="M1876.43 481.967L1874.28 483.236L1874.34 483.339L1874.41 483.435C1908.49 530.377 1934.72 568.484 1951.56 597.278C1959.99 611.682 1966.01 623.667 1969.49 633.208C1973.02 642.897 1973.73 649.514 1972.3 653.528C1971.63 655.411 1970.48 656.757 1968.76 657.675C1966.98 658.629 1964.45 659.193 1960.98 659.163C1953.99 659.102 1943.92 656.652 1930.43 651.508C1903.53 641.254 1863.96 620.68 1810.02 589.16C1807.64 587.547 1804.95 585.505 1801.93 583.209C1801.62 582.968 1801.29 582.724 1800.97 582.477C1797.56 579.884 1793.78 577.041 1789.72 574.311C1781.63 568.864 1772.24 563.737 1762.01 561.836C1751.69 559.917 1740.61 561.307 1729.34 568.702C1718.15 576.044 1706.91 589.201 1695.92 610.52C1690.66 620.706 1684.07 627.486 1676.57 631.578C1669.06 635.673 1660.48 637.175 1651.1 636.499C1632.24 635.14 1610.45 624.999 1588.88 610.079C1567.37 595.198 1546.33 575.748 1529 556.152C1511.64 536.53 1498.13 516.912 1491.54 501.737C1479.13 473.126 1468.76 433.938 1471.65 398.003C1474.52 362.204 1490.49 329.857 1530.67 313.985C1550.68 306.077 1573.65 307.025 1597.36 309.735C1602.72 310.347 1608.13 311.052 1613.54 311.757C1631.85 314.142 1650.22 316.535 1667.09 315.407C1689.18 313.93 1709.14 306.411 1723.77 284.989C1738.27 263.769 1747.32 229.215 1748.64 174.241C1749.29 147.378 1758.09 129.728 1772.09 118.973C1786.19 108.145 1805.99 103.964 1829.29 105.03C1875.91 107.163 1935.18 130.25 1986.25 159.949C2011.74 174.778 2035.1 191.201 2053.72 207.376C2072.39 223.595 2086.11 239.404 2092.56 252.971C2095.78 259.74 2097.1 265.757 2096.51 270.889C2095.93 275.928 2093.48 280.35 2088.66 284.014C2083.78 287.733 2076.39 290.706 2065.98 292.544C2055.58 294.378 2042.33 295.056 2025.84 294.308C1959.22 291.283 1916.1 301.352 1889.03 318.54C1861.82 335.817 1851.13 360.105 1849.01 384.649C1846.9 409.074 1853.26 433.75 1860.07 452.205C1863.48 461.455 1867.02 469.194 1869.72 474.626C1871.06 477.343 1872.2 479.485 1873 480.952C1873.4 481.686 1873.71 482.252 1873.93 482.637C1874.04 482.829 1874.13 482.976 1874.19 483.077C1874.21 483.127 1874.24 483.165 1874.25 483.192L1874.27 483.223L1874.28 483.232C1874.28 483.234 1874.28 483.236 1876.43 481.967Z" stroke="url(#paint20_linear_60_6)" stroke-width="5"/>
</g>
<g filter="url(#filter5_d_60_6)">
<path d="M1888.65 502.041L1886.07 503.565L1886.14 503.688L1886.22 503.804C1920.3 550.744 1946.53 588.834 1963.35 617.605C1971.77 631.999 1977.77 643.954 1981.24 653.454C1984.77 663.132 1985.41 669.6 1984.05 673.435C1983.42 675.204 1982.35 676.451 1980.75 677.309C1979.07 678.21 1976.63 678.767 1973.2 678.737C1966.3 678.677 1956.31 676.254 1942.83 671.116C1915.97 660.878 1876.43 640.326 1822.51 608.811C1820.14 607.208 1817.47 605.178 1814.45 602.884C1814.14 602.643 1813.82 602.4 1813.49 602.154C1810.08 599.56 1806.29 596.71 1802.22 593.97C1794.1 588.509 1784.65 583.339 1774.32 581.419C1763.88 579.478 1752.67 580.888 1741.29 588.359C1730 595.765 1718.71 609.004 1707.69 630.366C1702.48 640.478 1695.94 647.177 1688.55 651.214C1681.14 655.254 1672.66 656.745 1663.35 656.075C1644.62 654.726 1622.93 644.644 1601.39 629.742C1579.91 614.888 1558.9 595.466 1541.59 575.896C1524.25 556.292 1510.77 536.72 1504.22 521.613C1491.83 493.047 1481.48 453.943 1484.36 418.118C1487.23 382.455 1503.12 350.309 1543.07 334.525C1562.96 326.666 1585.81 327.597 1609.53 330.306C1614.87 330.916 1620.26 331.619 1625.66 332.323C1643.98 334.71 1662.42 337.113 1679.34 335.981C1701.54 334.496 1721.66 326.928 1736.41 305.345C1750.98 284.005 1760.03 249.333 1761.36 194.328C1762.01 167.574 1770.76 150.085 1784.62 139.444C1798.58 128.717 1818.25 124.54 1841.49 125.604C1887.99 127.731 1947.18 150.774 1998.22 180.456C2023.69 195.272 2047.02 211.677 2065.61 227.829C2084.26 244.031 2097.92 259.787 2104.33 273.26C2107.53 279.98 2108.81 285.9 2108.23 290.907C2107.67 295.801 2105.3 300.103 2100.58 303.691C2095.78 307.344 2088.48 310.296 2078.11 312.126C2067.76 313.952 2054.55 314.63 2038.09 313.883C1971.42 310.856 1928.17 320.925 1900.98 338.192C1873.62 355.566 1862.86 380.008 1860.73 404.681C1858.61 429.211 1865 453.967 1871.82 472.452C1875.24 481.723 1878.79 489.478 1881.49 494.923C1882.84 497.646 1883.97 499.794 1884.78 501.266C1885.18 502.003 1885.5 502.571 1885.72 502.958C1885.83 503.152 1885.91 503.3 1885.97 503.402C1886 503.453 1886.02 503.492 1886.04 503.519L1886.06 503.551L1886.06 503.56C1886.07 503.563 1886.07 503.565 1888.65 502.041Z" stroke="url(#paint21_linear_60_6)" stroke-width="6"/>
</g>
<defs>
<filter id="filter0_d_60_6" x="-251.999" y="39.0061" width="807" height="735.994" filterUnits="userSpaceOnUse" color-interpolation-filters="sRGB">
<feFlood flood-opacity="0" result="BackgroundImageFix"/>
<feColorMatrix in="SourceAlpha" type="matrix" values="0 0 0 0 0 0 0 0 0 0 0 0 0 0 0 0 0 0 127 0" result="hardAlpha"/>
<feOffset/>
<feGaussianBlur stdDeviation="25"/>
<feColorMatrix type="matrix" values="0 0 0 0 0.0141383 0 0 0 0 0.996396 0 0 0 0 0.465977 0 0 0 1 0"/>
<feBlend mode="normal" in2="BackgroundImageFix" result="effect1_dropShadow_60_6"/>
<feBlend mode="normal" in="SourceGraphic" in2="effect1_dropShadow_60_6" result="shape"/>
</filter>
<filter id="filter1_d_60_6" x="1382" y="0" width="730.489" height="659.295" filterUnits="userSpaceOnUse" color-interpolation-filters="sRGB">
<feFlood flood-opacity="0" result="BackgroundImageFix"/>
<feColorMatrix in="SourceAlpha" type="matrix" values="0 0 0 0 0 0 0 0 0 0 0 0 0 0 0 0 0 0 127 0" result="hardAlpha"/>
<feOffset/>
<feGaussianBlur stdDeviation="25"/>
<feColorMatrix type="matrix" values="0 0 0 0 0.203922 0 0 0 0 0.976471 0 0 0 0 0.101961 0 0 0 1 0"/>
<feBlend mode="normal" in2="BackgroundImageFix" result="effect1_dropShadow_60_6"/>
<feBlend mode="normal" in="SourceGraphic" in2="effect1_dropShadow_60_6" result="shape"/>
</filter>
<filter id="filter2_d_60_6" x="1395.09" y="15.7106" width="730.489" height="659.295" filterUnits="userSpaceOnUse" color-interpolation-filters="sRGB">
<feFlood flood-opacity="0" result="BackgroundImageFix"/>
<feColorMatrix in="SourceAlpha" type="matrix" values="0 0 0 0 0 0 0 0 0 0 0 0 0 0 0 0 0 0 127 0" result="hardAlpha"/>
<feOffset/>
<feGaussianBlur stdDeviation="25"/>
<feColorMatrix type="matrix" values="0 0 0 0 0.203922 0 0 0 0 0.976471 0 0 0 0 0.101961 0 0 0 1 0"/>
<feBlend mode="normal" in2="BackgroundImageFix" result="effect1_dropShadow_60_6"/>
<feBlend mode="normal" in="SourceGraphic" in2="effect1_dropShadow_60_6" result="shape"/>
</filter>
<filter id="filter3_d_60_6" x="1405.57" y="33.1668" width="730.489" height="659.295" filterUnits="userSpaceOnUse" color-interpolation-filters="sRGB">
<feFlood flood-opacity="0" result="BackgroundImageFix"/>
<feColorMatrix in="SourceAlpha" type="matrix" values="0 0 0 0 0 0 0 0 0 0 0 0 0 0 0 0 0 0 127 0" result="hardAlpha"/>
<feOffset/>
<feGaussianBlur stdDeviation="25"/>
<feColorMatrix type="matrix" values="0 0 0 0 0.203922 0 0 0 0 0.976471 0 0 0 0 0.101961 0 0 0 1 0"/>
<feBlend mode="normal" in2="BackgroundImageFix" result="effect1_dropShadow_60_6"/>
<feBlend mode="normal" in="SourceGraphic" in2="effect1_dropShadow_60_6" result="shape"/>
</filter>
<filter id="filter4_d_60_6" x="1418.66" y="52.3686" width="730.489" height="659.295" filterUnits="userSpaceOnUse" color-interpolation-filters="sRGB">
<feFlood flood-opacity="0" result="BackgroundImageFix"/>
<feColorMatrix in="SourceAlpha" type="matrix" values="0 0 0 0 0 0 0 0 0 0 0 0 0 0 0 0 0 0 127 0" result="hardAlpha"/>
<feOffset/>
<feGaussianBlur stdDeviation="25"/>
<feColorMatrix type="matrix" values="0 0 0 0 0.203922 0 0 0 0 0.976471 0 0 0 0 0.101961 0 0 0 1 0"/>
<feBlend mode="normal" in2="BackgroundImageFix" result="effect1_dropShadow_60_6"/>
<feBlend mode="normal" in="SourceGraphic" in2="effect1_dropShadow_60_6" result="shape"/>
</filter>
<filter id="filter5_d_60_6" x="1430.88" y="72.4433" width="730.489" height="659.295" filterUnits="userSpaceOnUse" color-interpolation-filters="sRGB">
<feFlood flood-opacity="0" result="BackgroundImageFix"/>
<feColorMatrix in="SourceAlpha" type="matrix" values="0 0 0 0 0 0 0 0 0 0 0 0 0 0 0 0 0 0 127 0" result="hardAlpha"/>
<feOffset/>
<feGaussianBlur stdDeviation="25"/>
<feColorMatrix type="matrix" values="0 0 0 0 0.203922 0 0 0 0 0.976471 0 0 0 0 0.101961 0 0 0 1 0"/>
<feBlend mode="normal" in2="BackgroundImageFix" result="effect1_dropShadow_60_6"/>
<feBlend mode="normal" in="SourceGraphic" in2="effect1_dropShadow_60_6" result="shape"/>
</filter>
<linearGradient id="paint0_linear_60_6" x1="105.196" y1="125.257" x2="105.196" y2="730.299" gradientUnits="userSpaceOnUse">
<stop stop-color="#00FF29"/>
<stop offset="1" stop-color="#0047FF"/>
</linearGradient>
<linearGradient id="paint1_linear_60_6" x1="105.196" y1="125.257" x2="105.196" y2="730.299" gradientUnits="userSpaceOnUse">
<stop stop-color="#00FF29"/>
<stop offset="1" stop-color="#0047FF"/>
</linearGradient>
<linearGradient id="paint2_linear_60_6" x1="105.196" y1="125.257" x2="105.196" y2="730.299" gradientUnits="userSpaceOnUse">
<stop stop-color="#00FF29"/>
<stop offset="1" stop-color="#0047FF"/>
</linearGradient>
<linearGradient id="paint3_linear_60_6" x1="105.196" y1="125.257" x2="105.196" y2="730.299" gradientUnits="userSpaceOnUse">
<stop stop-color="#00FF29"/>
<stop offset="1" stop-color="#0047FF"/>
</linearGradient>
<linearGradient id="paint4_linear_60_6" x1="105.196" y1="125.257" x2="105.196" y2="730.299" gradientUnits="userSpaceOnUse">
<stop stop-color="#00FF29"/>
<stop offset="1" stop-color="#0047FF"/>
</linearGradient>
<linearGradient id="paint5_linear_60_6" x1="105.196" y1="125.257" x2="105.196" y2="730.299" gradientUnits="userSpaceOnUse">
<stop stop-color="#00FF29"/>
<stop offset="1" stop-color="#0047FF"/>
</linearGradient>
<linearGradient id="paint6_linear_60_6" x1="105.196" y1="125.257" x2="105.196" y2="730.299" gradientUnits="userSpaceOnUse">
<stop stop-color="#00FF29"/>
<stop offset="1" stop-color="#0047FF"/>
</linearGradient>
<linearGradient id="paint7_linear_60_6" x1="105.196" y1="125.257" x2="105.196" y2="730.299" gradientUnits="userSpaceOnUse">
<stop stop-color="#00FF29"/>
<stop offset="1" stop-color="#0047FF"/>
</linearGradient>
<linearGradient id="paint8_linear_60_6" x1="105.196" y1="125.257" x2="105.196" y2="730.299" gradientUnits="userSpaceOnUse">
<stop stop-color="#00FF29"/>
<stop offset="1" stop-color="#0047FF"/>
</linearGradient>
<linearGradient id="paint9_linear_60_6" x1="105.196" y1="125.257" x2="105.196" y2="730.299" gradientUnits="userSpaceOnUse">
<stop stop-color="#00FF29"/>
<stop offset="1" stop-color="#0047FF"/>
</linearGradient>
<linearGradient id="paint10_linear_60_6" x1="105.196" y1="125.257" x2="105.196" y2="730.299" gradientUnits="userSpaceOnUse">
<stop stop-color="#00FF29"/>
<stop offset="1" stop-color="#0047FF"/>
</linearGradient>
<linearGradient id="paint11_linear_60_6" x1="105.196" y1="125.257" x2="105.196" y2="730.299" gradientUnits="userSpaceOnUse">
<stop stop-color="#00FF29"/>
<stop offset="1" stop-color="#0047FF"/>
</linearGradient>
<linearGradient id="paint12_linear_60_6" x1="1747.24" y1="50" x2="1747.24" y2="609.295" gradientUnits="userSpaceOnUse">
<stop stop-color="#57FF08"/>
<stop offset="1" stop-color="#05F0FF"/>
</linearGradient>
<linearGradient id="paint13_linear_60_6" x1="1760.34" y1="65.7106" x2="1760.34" y2="625.006" gradientUnits="userSpaceOnUse">
<stop stop-color="#57FF08"/>
<stop offset="1" stop-color="#05F0FF"/>
</linearGradient>
<linearGradient id="paint14_linear_60_6" x1="1770.81" y1="83.1668" x2="1770.81" y2="642.462" gradientUnits="userSpaceOnUse">
<stop stop-color="#57FF08"/>
<stop offset="1" stop-color="#05F0FF"/>
</linearGradient>
<linearGradient id="paint15_linear_60_6" x1="1783.9" y1="102.369" x2="1783.9" y2="661.664" gradientUnits="userSpaceOnUse">
<stop stop-color="#57FF08"/>
<stop offset="1" stop-color="#05F0FF"/>
</linearGradient>
<linearGradient id="paint16_linear_60_6" x1="1796.12" y1="122.443" x2="1796.12" y2="681.739" gradientUnits="userSpaceOnUse">
<stop stop-color="#57FF08"/>
<stop offset="1" stop-color="#05F0FF"/>
</linearGradient>
<linearGradient id="paint17_linear_60_6" x1="1747.24" y1="50" x2="1747.24" y2="609.295" gradientUnits="userSpaceOnUse">
<stop stop-color="#57FF08" stop-opacity="0.31"/>
<stop offset="1" stop-color="#05A5FF"/>
</linearGradient>
<linearGradient id="paint18_linear_60_6" x1="1760.34" y1="65.7106" x2="1760.34" y2="625.006" gradientUnits="userSpaceOnUse">
<stop stop-color="#57FF08" stop-opacity="0.31"/>
<stop offset="1" stop-color="#05A5FF"/>
</linearGradient>
<linearGradient id="paint19_linear_60_6" x1="1770.81" y1="83.1668" x2="1770.81" y2="642.462" gradientUnits="userSpaceOnUse">
<stop stop-color="#57FF08" stop-opacity="0.27"/>
<stop offset="1" stop-color="#0596FF"/>
</linearGradient>
<linearGradient id="paint20_linear_60_6" x1="1783.9" y1="102.369" x2="1783.9" y2="661.664" gradientUnits="userSpaceOnUse">
<stop stop-color="#57FF08" stop-opacity="0.31"/>
<stop offset="1" stop-color="#05A5FF"/>
</linearGradient>
<linearGradient id="paint21_linear_60_6" x1="1796.12" y1="122.443" x2="1796.12" y2="681.739" gradientUnits="userSpaceOnUse">
<stop stop-color="#57FF08" stop-opacity="0.31"/>
<stop offset="1" stop-color="#05A5FF"/>
</linearGradient>
</defs>
</svg>
