<svg width="1920" height="1114" viewBox="0 0 1920 1114" fill="none" xmlns="http://www.w3.org/2000/svg">
<path d="M1714.12 506.715L1711.53 508.24L1711.61 508.363L1711.69 508.479C1750.74 562.183 1780.8 605.776 1800.09 638.713C1809.74 655.189 1816.64 668.893 1820.62 679.797C1824.67 690.879 1825.45 698.406 1823.84 702.947C1823.08 705.069 1821.78 706.582 1819.85 707.616C1817.84 708.693 1814.96 709.337 1810.99 709.302C1803.01 709.233 1791.49 706.437 1776.03 700.553C1745.22 688.826 1699.89 665.294 1638.09 629.233C1635.36 627.391 1632.29 625.057 1628.83 622.431C1628.47 622.155 1628.1 621.876 1627.73 621.594C1623.82 618.627 1619.49 615.373 1614.83 612.247C1605.55 606.011 1594.78 600.134 1583.03 597.954C1571.17 595.753 1558.45 597.348 1545.5 605.829C1532.65 614.246 1519.76 629.322 1507.15 653.725C1501.15 665.357 1493.6 673.092 1485.04 677.759C1476.47 682.43 1466.66 684.145 1455.92 683.373C1434.35 681.821 1409.41 670.234 1384.71 653.169C1360.07 636.151 1335.97 613.907 1316.11 591.495C1296.22 569.05 1280.75 546.619 1273.22 529.276C1259 496.556 1247.12 451.745 1250.43 410.664C1253.72 369.748 1272 332.795 1317.97 314.66C1340.87 305.625 1367.16 306.706 1394.33 309.806C1400.47 310.506 1406.66 311.311 1412.86 312.118C1433.84 314.846 1454.91 317.588 1474.25 316.296C1499.59 314.604 1522.51 305.989 1539.3 281.436C1555.94 257.124 1566.3 217.558 1567.82 154.654C1568.57 123.953 1578.64 103.805 1594.64 91.5307C1610.75 79.1699 1633.41 74.3871 1660.09 75.606C1713.49 78.045 1781.38 104.447 1839.88 138.421C1869.09 155.383 1895.85 174.167 1917.18 192.667C1938.56 211.218 1954.26 229.291 1961.65 244.785C1965.33 252.516 1966.83 259.372 1966.16 265.207C1965.49 270.931 1962.71 275.956 1957.22 280.128C1951.64 284.364 1943.2 287.76 1931.28 289.861C1919.38 291.958 1904.21 292.733 1885.32 291.877C1808.97 288.416 1759.53 299.935 1728.48 319.621C1697.27 339.414 1684.99 367.244 1682.56 395.363C1680.14 423.337 1687.44 451.591 1695.24 472.714C1699.15 483.303 1703.21 492.162 1706.3 498.38C1707.84 501.49 1709.14 503.942 1710.06 505.623C1710.52 506.463 1710.89 507.111 1711.14 507.552C1711.26 507.772 1711.36 507.941 1711.43 508.056C1711.46 508.114 1711.49 508.158 1711.5 508.189L1711.52 508.224L1711.53 508.235C1711.53 508.238 1711.53 508.24 1714.12 506.715Z" stroke="url(#paint0_linear_57_10)" stroke-width="6"/>
<path d="M1754.46 512.215L1752.3 513.486L1752.36 513.589L1752.43 513.685C1791.48 567.391 1821.56 611.001 1840.86 643.96C1850.52 660.447 1857.43 674.18 1861.43 685.126C1865.48 696.219 1866.33 703.895 1864.65 708.615C1863.85 710.851 1862.47 712.463 1860.43 713.557C1858.31 714.687 1855.35 715.337 1851.33 715.302C1843.25 715.232 1831.67 712.41 1816.2 706.521C1785.34 694.777 1739.97 671.224 1678.17 635.157C1675.42 633.305 1672.33 630.959 1668.87 628.332C1668.51 628.055 1668.14 627.776 1667.77 627.493C1663.86 624.526 1659.54 621.28 1654.89 618.162C1645.64 611.941 1634.93 606.108 1623.28 603.946C1611.54 601.767 1598.95 603.342 1586.11 611.748C1573.36 620.1 1560.52 635.094 1547.94 659.455C1541.89 671.161 1534.28 678.976 1525.62 683.698C1516.95 688.424 1507.03 690.15 1496.23 689.372C1474.52 687.811 1449.5 676.165 1424.76 659.081C1400.08 642.037 1375.95 619.763 1356.07 597.327C1336.17 574.863 1320.66 552.387 1313.1 534.976C1298.86 502.211 1286.95 457.315 1290.27 416.125C1293.57 375.071 1311.93 337.918 1358.13 319.695C1381.15 310.611 1407.55 311.709 1434.73 314.809C1440.89 315.512 1447.09 316.319 1453.3 317.126C1474.27 319.854 1495.27 322.586 1514.56 321.298C1539.79 319.613 1562.54 311.046 1579.23 286.654C1595.78 262.462 1606.14 223.015 1607.66 160.142C1608.41 129.332 1618.52 109.023 1634.67 96.6344C1650.92 84.1733 1673.71 79.3853 1700.46 80.607C1753.96 83.0512 1821.94 109.498 1880.47 143.489C1909.7 160.464 1936.49 179.266 1957.84 197.79C1979.25 216.356 1995.01 234.483 2002.44 250.071C2006.14 257.851 2007.68 264.804 2006.99 270.765C2006.31 276.633 2003.46 281.778 1997.86 286.026C1992.2 290.329 1983.67 293.745 1971.71 295.854C1959.76 297.959 1944.54 298.734 1925.64 297.877C1849.34 294.418 1800.01 305.937 1769.09 325.544C1738.03 345.24 1725.82 372.917 1723.39 400.906C1720.98 428.775 1728.26 456.949 1736.05 478.041C1739.95 488.61 1744.01 497.453 1747.09 503.658C1748.63 506.761 1749.92 509.208 1750.84 510.883C1751.3 511.721 1751.66 512.366 1751.91 512.805C1752.04 513.024 1752.13 513.192 1752.2 513.306C1752.23 513.363 1752.26 513.406 1752.27 513.437L1752.29 513.472L1752.3 513.481C1752.3 513.484 1752.3 513.486 1754.46 512.215Z" stroke="url(#paint1_linear_57_10)" stroke-width="5"/>
<path d="M1824.13 523.838L1822.84 524.6L1822.88 524.661L1822.92 524.719C1861.97 578.504 1892.07 622.211 1911.4 655.264C1921.07 671.795 1928.02 685.608 1932.04 696.652C1936.11 707.784 1937.08 715.771 1935.26 720.857C1934.39 723.326 1932.84 725.138 1930.57 726.354C1928.27 727.591 1925.12 728.256 1921 728.22C1912.73 728.148 1901.02 725.268 1885.52 719.361C1854.57 707.566 1809.14 683.937 1747.31 647.808C1744.53 645.933 1741.41 643.558 1737.95 640.923C1737.58 640.645 1737.21 640.364 1736.84 640.081C1732.93 637.111 1728.63 633.875 1724.01 630.77C1714.8 624.569 1704.22 618.816 1692.77 616.688C1681.27 614.549 1668.94 616.086 1656.34 624.354C1643.78 632.589 1631.04 647.44 1618.5 671.75C1612.38 683.621 1604.64 691.609 1595.77 696.449C1586.9 701.29 1576.79 703.039 1565.83 702.25C1543.86 700.668 1518.66 688.887 1493.87 671.741C1469.11 654.618 1444.93 632.256 1425 609.738C1405.07 587.204 1389.48 564.605 1381.86 547.032C1367.58 514.13 1355.62 468.999 1358.95 427.529C1362.28 386.141 1380.8 348.533 1427.44 330.108C1450.71 320.913 1477.33 322.046 1504.52 325.152C1510.72 325.86 1516.95 326.672 1523.17 327.483C1544.12 330.211 1564.99 332.928 1584.17 331.646C1609.19 329.973 1631.62 321.491 1648.08 297.386C1664.47 273.402 1674.82 234.136 1676.34 171.236C1677.09 140.161 1687.29 119.502 1703.74 106.865C1720.25 94.1854 1743.32 89.3802 1770.18 90.6091C1823.92 93.0675 1892.06 119.641 1950.65 153.716C1979.93 170.74 2006.76 189.605 2028.17 208.203C2049.61 226.828 2065.5 245.089 2073.02 260.886C2076.77 268.776 2078.38 275.934 2077.66 282.158C2076.95 288.325 2073.94 293.717 2068.14 298.125C2062.31 302.565 2053.61 306.028 2041.56 308.155C2029.52 310.28 2014.22 311.056 1995.27 310.195C1919.06 306.736 1869.97 318.27 1839.3 337.747C1808.54 357.279 1796.47 384.688 1794.07 412.457C1791.67 440.154 1798.9 468.207 1806.67 489.267C1810.55 499.811 1814.59 508.633 1817.66 514.822C1819.19 517.917 1820.48 520.355 1821.39 522.022C1821.85 522.856 1822.21 523.497 1822.46 523.931C1822.58 524.149 1822.67 524.314 1822.74 524.426C1822.77 524.482 1822.8 524.525 1822.81 524.554L1822.83 524.587L1822.84 524.596C1822.84 524.597 1822.84 524.598 1822.92 524.548C1823.05 524.475 1823.36 524.293 1824.13 523.838Z" stroke="url(#paint2_linear_57_10)" stroke-width="3"/>
<path d="M1849.8 526.883L1848.08 527.899L1848.13 527.982L1848.19 528.059C1887.23 581.766 1917.32 625.393 1936.64 658.375C1946.3 674.872 1953.23 688.635 1957.25 699.622C1961.3 710.727 1962.21 718.552 1960.46 723.451C1959.63 725.801 1958.17 727.512 1956.01 728.666C1953.8 729.849 1950.74 730.506 1946.67 730.47C1938.5 730.399 1926.85 727.55 1911.37 721.656C1880.46 709.895 1835.06 686.321 1773.25 650.249C1770.48 648.386 1767.38 646.028 1763.92 643.398C1763.55 643.122 1763.18 642.842 1762.81 642.559C1758.9 639.593 1754.59 636.354 1749.96 633.245C1740.73 627.038 1730.08 621.249 1718.54 619.106C1706.91 616.948 1694.45 618.504 1681.73 626.834C1669.08 635.122 1656.29 650.033 1643.73 674.352C1637.65 686.132 1629.97 694.028 1621.21 698.805C1612.43 703.585 1602.42 705.322 1591.54 704.539C1569.7 702.968 1544.59 691.263 1519.82 674.16C1495.11 657.089 1470.95 634.787 1451.05 612.326C1431.13 589.843 1415.58 567.322 1407.99 549.843C1393.73 517.033 1381.8 472.052 1385.12 430.752C1388.43 389.562 1406.88 352.208 1453.29 333.898C1476.44 324.764 1502.95 325.879 1530.13 328.98C1536.31 329.685 1542.53 330.494 1548.75 331.302C1569.7 334.028 1590.64 336.751 1609.87 335.466C1635 333.789 1657.59 325.271 1674.17 301.039C1690.63 276.968 1700.99 237.639 1702.51 174.798C1703.26 143.878 1713.42 123.409 1729.72 110.905C1746.09 98.344 1769.02 93.5508 1795.83 94.7752C1849.45 97.2248 1917.51 123.716 1976.07 157.724C2005.32 174.712 2032.14 193.532 2053.52 212.08C2074.94 230.662 2090.77 248.843 2098.24 264.523C2101.97 272.353 2103.54 279.403 2102.84 285.49C2102.14 291.503 2099.21 296.767 2093.51 301.092C2087.76 305.46 2079.15 308.897 2067.14 311.014C2055.15 313.127 2039.89 313.902 2020.97 313.044C1944.71 309.587 1895.5 321.105 1864.7 340.634C1833.79 360.234 1821.65 387.758 1819.24 415.617C1816.84 443.381 1824.09 471.475 1831.87 492.536C1835.76 503.085 1839.81 511.911 1842.88 518.103C1844.42 521.201 1845.71 523.641 1846.63 525.311C1847.08 526.146 1847.44 526.789 1847.69 527.225C1847.82 527.443 1847.91 527.61 1847.98 527.723C1848.01 527.779 1848.04 527.822 1848.05 527.852L1848.07 527.886L1848.08 527.895C1848.08 527.898 1848.08 527.899 1849.8 526.883Z" stroke="url(#paint3_linear_57_10)" stroke-width="4"/>
<path d="M1792.05 519.254L1790.32 520.27L1790.37 520.352L1790.43 520.429C1829.47 574.213 1859.56 617.903 1878.88 650.933C1888.54 667.453 1895.47 681.237 1899.49 692.239C1903.54 703.36 1904.45 711.198 1902.71 716.106C1901.87 718.461 1900.41 720.174 1898.25 721.33C1896.04 722.514 1892.98 723.172 1888.91 723.136C1880.74 723.065 1869.09 720.212 1853.61 714.31C1822.71 702.532 1777.31 678.924 1715.49 642.8C1712.73 640.935 1709.62 638.573 1706.16 635.94C1705.79 635.663 1705.43 635.383 1705.05 635.1C1701.14 632.129 1696.83 628.886 1692.21 625.772C1682.97 619.556 1672.33 613.759 1660.78 611.612C1649.15 609.452 1636.69 611.009 1623.98 619.352C1611.32 627.651 1598.53 642.584 1585.97 666.938C1579.89 678.735 1572.21 686.642 1563.45 691.426C1554.67 696.213 1544.66 697.952 1533.78 697.168C1511.94 695.595 1486.83 683.873 1462.07 666.746C1437.35 649.65 1413.19 627.316 1393.29 604.823C1373.37 582.308 1357.82 559.754 1350.23 542.25C1335.97 509.392 1324.04 464.346 1327.36 422.986C1330.68 381.734 1349.12 344.327 1395.53 325.99C1418.68 316.844 1445.19 317.96 1472.37 321.065C1478.55 321.771 1484.77 322.581 1490.99 323.391C1511.94 326.12 1532.88 328.847 1552.11 327.561C1577.24 325.881 1599.83 317.35 1616.41 293.084C1632.88 268.98 1643.23 229.596 1644.75 166.665C1645.5 135.699 1655.66 115.2 1671.96 102.678C1688.34 90.0987 1711.26 85.2987 1738.07 86.5249C1791.69 88.978 1859.75 115.507 1918.31 149.564C1947.56 166.576 1974.38 185.423 1995.76 203.997C2017.18 222.606 2033.01 240.813 2040.48 256.517C2044.21 264.358 2045.78 271.419 2045.08 277.517C2044.38 283.54 2041.45 288.812 2035.75 293.143C2030 297.518 2021.39 300.96 2009.38 303.079C1997.39 305.196 1982.13 305.971 1963.21 305.112C1886.95 301.65 1837.74 313.185 1806.94 332.742C1776.03 352.37 1763.89 379.932 1761.48 407.83C1759.08 435.632 1766.33 463.765 1774.11 484.856C1778.01 495.42 1782.05 504.259 1785.12 510.46C1786.66 513.562 1787.96 516.006 1788.87 517.678C1789.32 518.515 1789.69 519.158 1789.93 519.595C1790.06 519.813 1790.15 519.98 1790.22 520.093L1790.25 520.145L1790.29 520.222L1790.31 520.256L1790.32 520.266C1790.32 520.268 1790.32 520.27 1792.05 519.254Z" stroke="url(#paint4_linear_57_10)" stroke-width="4"/>
<path d="M321.676 283.414C206.046 337.44 123.985 449.243 104.781 517.061C58.3235 681.132 65.4513 891.154 127.557 1014.88C197.319 1153.85 201.127 990.397 253.7 917.699C317.23 829.848 334.362 827.405 384.585 820.244L385.098 820.17C450.189 810.888 479.705 867.882 521.752 917.699C562.153 965.564 681.883 978.04 771.234 893.843C860.585 809.646 843.416 728.957 825.195 699.839C789.412 642.655 692.541 642.415 608.3 672.826C499.681 712.036 469.193 644.058 469.193 598.802C469.193 557.539 479.369 535.456 521.752 498.818C585.875 443.388 606.896 374.459 572.56 322.706C531.58 260.938 428.364 233.566 321.676 283.414Z" stroke="url(#paint5_linear_57_10)" stroke-width="4"/>
<path d="M271.865 298.882C167.761 332.637 128.56 421.505 54.8269 532.5C-18.9058 643.495 20.4047 927.503 77.6176 1030.25C153.268 1166.11 151.236 1005.78 203.844 933.087C267.415 845.247 284.559 842.804 334.816 835.644L335.329 835.571C400.463 826.289 429.998 883.276 472.073 933.087C512.5 980.946 632.31 993.42 721.72 909.234C811.13 825.047 793.949 744.369 775.716 715.254C739.91 658.078 642.975 657.838 558.678 688.245C449.987 727.45 419.479 659.481 419.479 614.231C419.479 572.973 429.661 550.893 472.073 514.259C536.238 458.837 557.273 389.916 522.914 338.169C481.907 276.409 383.937 262.545 271.865 298.882Z" stroke="url(#paint6_linear_57_10)" stroke-width="4"/>
<path d="M229.22 308.997C113.564 363.059 28.9828 510.383 12.277 542.797C-55.0963 699.979 -45.585 911.06 35.0577 1040.94C117.12 1173.1 108.644 1016.44 161.228 943.697C224.772 855.788 241.908 853.344 292.143 846.178L292.655 846.104C357.761 836.816 387.283 893.847 429.34 943.697C469.749 991.593 589.506 1004.08 678.877 919.825C768.247 835.573 751.074 754.831 732.849 725.694C697.059 668.473 600.166 668.233 515.907 698.663C407.263 737.9 376.769 669.877 376.769 624.591C376.769 583.301 386.947 561.204 429.34 524.542C493.476 469.076 514.502 400.102 480.158 348.314C439.169 286.506 335.931 259.116 229.22 308.997Z" stroke="url(#paint7_linear_57_10)" stroke-width="4"/>
<path d="M196.028 318.884C80.325 372.927 -4.29036 520.201 -21.0031 552.603C-102.464 713.533 -82.8424 925.045 1.78693 1050.57C88.7375 1179.54 75.4033 1026.09 128.009 953.365C191.579 865.487 208.722 863.043 258.977 855.879L259.49 855.806C324.622 846.521 354.156 903.533 396.23 953.365C436.656 1001.24 556.462 1013.72 645.869 929.501C735.276 845.278 718.096 764.565 699.864 735.437C664.058 678.236 567.126 677.996 482.833 708.416C374.145 747.639 343.638 679.64 343.638 634.37C343.638 593.094 353.82 571.004 396.23 534.355C460.393 478.908 481.427 409.958 447.07 358.188C406.064 296.401 302.783 269.021 196.028 318.884Z" stroke="url(#paint8_linear_57_10)" stroke-width="4"/>
<path d="M172.55 326.297C56.759 380.319 -27.9205 527.534 -44.6459 559.924C-133.394 749.756 -97.5134 948.74 -21.8386 1057.7C66.8876 1185.45 51.8335 1033.22 104.479 960.528C168.097 872.685 185.253 870.242 235.546 863.081L236.06 863.008C301.241 853.726 330.798 910.716 372.904 960.528C413.36 1008.39 533.257 1020.86 622.731 936.675C712.206 852.484 695.013 771.802 676.767 742.687C640.935 685.508 543.929 685.268 459.571 715.676C350.801 754.883 320.271 686.911 320.271 641.658C320.271 600.399 330.461 578.318 372.904 541.683C437.115 486.258 458.165 417.334 423.781 365.585C382.744 303.822 279.386 276.453 172.55 326.297Z" stroke="url(#paint9_linear_57_10)" stroke-width="4"/>
<path d="M157.978 332.677C44.9542 380.14 -37.6551 522.435 -59.1052 566.275C-136.503 739.871 -123.029 947.687 -36.3097 1063.99C56.6422 1188.65 37.3241 1039.51 89.9422 966.831C153.527 878.998 170.675 876.555 220.942 869.395L221.455 869.322C286.603 860.042 316.144 917.024 358.228 966.831C398.663 1014.69 518.498 1027.16 607.926 942.98C697.355 858.8 680.17 778.128 661.934 749.016C626.12 691.843 529.165 691.604 444.851 722.008C336.137 761.211 305.623 693.246 305.623 648C305.623 606.745 315.807 584.667 358.228 548.036C422.406 492.618 443.445 423.703 409.079 371.96C368.063 310.205 266.625 287.051 157.978 332.677Z" stroke="url(#paint10_linear_57_10)" stroke-width="4"/>
<defs>
<linearGradient id="paint0_linear_57_10" x1="1608.09" y1="72.4221" x2="1608.09" y2="712.303" gradientUnits="userSpaceOnUse">
<stop stop-color="#57FF08"/>
<stop offset="1" stop-color="#05E1FF"/>
</linearGradient>
<linearGradient id="paint1_linear_57_10" x1="1648.43" y1="77.9225" x2="1648.43" y2="717.804" gradientUnits="userSpaceOnUse">
<stop stop-color="#57FF08"/>
<stop offset="1" stop-color="#05E1FF"/>
</linearGradient>
<linearGradient id="paint2_linear_57_10" x1="1718.11" y1="88.9233" x2="1718.11" y2="729.721" gradientUnits="userSpaceOnUse">
<stop stop-color="#57FF08"/>
<stop offset="1" stop-color="#05E1FF"/>
</linearGradient>
<linearGradient id="paint3_linear_57_10" x1="1743.78" y1="92.5903" x2="1743.78" y2="732.472" gradientUnits="userSpaceOnUse">
<stop stop-color="#52FF00"/>
<stop offset="1" stop-color="#05E1FF"/>
</linearGradient>
<linearGradient id="paint4_linear_57_10" x1="1686.02" y1="84.3397" x2="1686.02" y2="725.138" gradientUnits="userSpaceOnUse">
<stop stop-color="#57FF08"/>
<stop offset="1" stop-color="#05F0FF"/>
</linearGradient>
<linearGradient id="paint5_linear_57_10" x1="302.345" y1="303.915" x2="302.345" y2="1121.87" gradientUnits="userSpaceOnUse">
<stop stop-color="#00FF29"/>
<stop offset="1" stop-color="#0047FF"/>
</linearGradient>
<linearGradient id="paint6_linear_57_10" x1="302.345" y1="303.915" x2="302.345" y2="1121.87" gradientUnits="userSpaceOnUse">
<stop stop-color="#00FF29"/>
<stop offset="1" stop-color="#0047FF"/>
</linearGradient>
<linearGradient id="paint7_linear_57_10" x1="302.345" y1="303.915" x2="302.345" y2="1121.87" gradientUnits="userSpaceOnUse">
<stop stop-color="#00FF29"/>
<stop offset="1" stop-color="#0047FF"/>
</linearGradient>
<linearGradient id="paint8_linear_57_10" x1="302.345" y1="303.915" x2="302.345" y2="1121.87" gradientUnits="userSpaceOnUse">
<stop stop-color="#00FF29"/>
<stop offset="1" stop-color="#0047FF"/>
</linearGradient>
<linearGradient id="paint9_linear_57_10" x1="302.345" y1="303.915" x2="302.345" y2="1121.87" gradientUnits="userSpaceOnUse">
<stop stop-color="#00FF29"/>
<stop offset="1" stop-color="#0047FF"/>
</linearGradient>
<linearGradient id="paint10_linear_57_10" x1="302.345" y1="303.915" x2="302.345" y2="1121.87" gradientUnits="userSpaceOnUse">
<stop stop-color="#00FF29"/>
<stop offset="1" stop-color="#0047FF"/>
</linearGradient>
</defs>
</svg>
