<svg width="36" height="36" viewBox="0 0 36 36" fill="none" xmlns="http://www.w3.org/2000/svg">
<path fill-rule="evenodd" clip-rule="evenodd" d="M18 3.37012C9.7125 3.37012 3 10.0826 3 18.3701C3 25.0076 7.29375 30.6139 13.2563 32.6014C14.0063 32.7326 14.2875 32.2826 14.2875 31.8889C14.2875 31.5326 14.2688 30.3514 14.2688 29.0951C10.5 29.7889 9.525 28.1764 9.225 27.3326C9.05625 26.9014 8.325 25.5701 7.6875 25.2139C7.1625 24.9326 6.4125 24.2389 7.66875 24.2201C8.85 24.2014 9.69375 25.3076 9.975 25.7576C11.325 28.0264 13.4813 27.3889 14.3438 26.9951C14.475 26.0201 14.8688 25.3639 15.3 24.9889C11.9625 24.6139 8.475 23.3201 8.475 17.5826C8.475 15.9514 9.05625 14.6014 10.0125 13.5514C9.8625 13.1764 9.3375 11.6389 10.1625 9.57637C10.1625 9.57637 11.4188 9.18262 14.2875 11.1139C15.4875 10.7764 16.7625 10.6076 18.0375 10.6076C19.3125 10.6076 20.5875 10.7764 21.7875 11.1139C24.6563 9.16387 25.9125 9.57637 25.9125 9.57637C26.7375 11.6389 26.2125 13.1764 26.0625 13.5514C27.0188 14.6014 27.6 15.9326 27.6 17.5826C27.6 23.3389 24.0938 24.6139 20.7563 24.9889C21.3 25.4576 21.7688 26.3576 21.7688 27.7639C21.7688 29.7701 21.75 31.3826 21.75 31.8889C21.75 32.2826 22.0313 32.7514 22.7813 32.6014C25.759 31.5961 28.3466 29.6823 30.1797 27.1294C32.0128 24.5765 32.9992 21.513 33 18.3701C33 10.0826 26.2875 3.37012 18 3.37012Z" fill="#7305FF"/>
</svg>
